<?xml version="1.0" encoding="UTF-8"?>
<svg width="19px" height="23px" viewBox="0 0 19 23" version="1.1" xmlns="http://www.w3.org/2000/svg" xmlns:xlink="http://www.w3.org/1999/xlink">
    <!-- Generator: Sketch 52.3 (67297) - http://www.bohemiancoding.com/sketch -->
    <title>Logo</title>
    <desc>Created with Sketch.</desc>
    <g id="Page-1" stroke="none" stroke-width="1" fill="none" fill-rule="evenodd">
        <g id="Android" transform="translate(-241.000000, -165.000000)" fill="#000000" fill-rule="nonzero">
            <g id="Logo" transform="translate(241.000000, 165.000000)">
                <path d="M9.864,0 L0.891,5.567 L0.888,16.706 L9.864,22.27 L18.793,16.734 L18.793,5.543 L9.864,0 Z M9.074,19.865 L2.433,15.744 L2.436,6.534 L9.074,2.413 L9.074,3.498 C7.647,3.709 5.779,5.393 5.779,7.689 L5.775,11.424 L3.291,11.425 L3.291,15.549 L9.074,15.549 L9.074,19.865 Z M10.612,19.88 L10.616,13.88 L4.831,13.886 L4.829,13.088 L7.32,13.089 L7.32,7.75 C7.317,6.378 8.349,5.048 10.004,5.048 L10.613,5.048 L10.616,2.39 L17.25,6.506 L17.252,15.767 L10.612,19.88 Z"></path>
            </g>
        </g>
    </g>
</svg>